<?xml version="1.0" encoding="utf-8"?>
<!-- Generator: Adobe Illustrator 16.0.0, SVG Export Plug-In . SVG Version: 6.00 Build 0)  -->
<!DOCTYPE svg PUBLIC "-//W3C//DTD SVG 1.1//EN" "http://www.w3.org/Graphics/SVG/1.1/DTD/svg11.dtd">
<svg version="1.1" id="Layer_1" xmlns="http://www.w3.org/2000/svg" xmlns:xlink="http://www.w3.org/1999/xlink" x="0px" y="0px"
	 width="600px" height="100px" viewBox="0 0 600 100" enable-background="new 0 0 600 100" xml:space="preserve">
<path fill="#B0D135" d="M14,52.5h566.5c0,0-103,40-150.011,40c-17.5,0-235.983,0-254.983,0C89.501,92.5,14,52.5,14,52.5z"/>
<text transform="matrix(1.583 0 0 1 145.3047 85.3438)" fill="#FFFFFF" font-family="'MyriadPro-Semibold'" font-size="32.3607">HITCON 2015</text>
<g>
	<path fill="#B0D135" d="M24.565,34.005c-0.107,0.152-0.196,0.335-0.269,0.548H14.221v-1.235h25.261v0.457H24.977
		C24.808,33.774,24.672,33.854,24.565,34.005z M37.408,37.431H14.221v-0.137v-1.233h10.003v0.503h10.72
		C35.753,36.563,36.575,36.853,37.408,37.431z M29.28,45.472c0.13-0.334,0.197-0.625,0.197-0.867v-0.412h10.04v1.828H14.22v-0.045
		h14.505C28.965,45.976,29.148,45.808,29.28,45.472z M38.982,48.897H14.221v-1.965h25.261C39.41,47.542,39.242,48.198,38.982,48.897
		z M36.909,51.775H14.221v-2.145h24.404C38.147,50.513,37.576,51.229,36.909,51.775z M14.221,52.689V52.37h21.76
		c-0.43,0.214-0.894,0.319-1.394,0.319H14.221z M14.561,31.171c0.058-0.181,0.124-0.363,0.196-0.547h24.725v1.098h-25.08
		C14.446,31.536,14.5,31.353,14.561,31.171z M39.445,40.31h-24.26c-0.31-0.426-0.561-0.945-0.75-1.555h24.332
		C39.125,39.241,39.351,39.76,39.445,40.31z M16.757,27.882h22.724v0.96H15.793C16.08,28.477,16.4,28.155,16.757,27.882z
		 M17.49,42.665c-0.489-0.291-0.958-0.682-1.411-1.168h23.438v1.689h-10.04v-0.088h-10.61C18.438,43.097,17.978,42.952,17.49,42.665
		z"/>
	<path fill="#B0D135" d="M50.272,33.317h22.975v0.457h-12.22c-0.144,0-0.274,0.076-0.394,0.23c-0.119,0.152-0.214,0.335-0.286,0.548
		H50.272v-0.96V33.317z M73.247,37.431H50.272v-1.37H60.42c0.189,0.396,0.476,0.594,0.857,0.594h11.97V37.431z M50.272,38.755
		h22.975v1.555H50.272V38.755z M60.99,43.185H50.272v-1.688h22.975v1.688h-12.22H60.99z M73.247,46.021H50.272v-1.828h10.04
		c-0.023,0.029-0.036,0.061-0.036,0.092c0,0.029-0.006,0.078-0.017,0.139c-0.013,0.061-0.019,0.119-0.019,0.18
		c0,0.062,0.006,0.125,0.019,0.182c0.011,0.062,0.017,0.109,0.017,0.137c0.073,0.184,0.203,0.406,0.395,0.662
		c0.189,0.262,0.309,0.389,0.357,0.389h12.22L73.247,46.021L73.247,46.021z M50.272,47.071v-0.137h22.975v1.965H50.592
		C50.379,48.321,50.272,47.71,50.272,47.071z M50.683,31.171c0.059-0.181,0.124-0.363,0.197-0.547h22.368v1.098H50.522
		C50.569,31.536,50.622,31.353,50.683,31.171z M51.666,50.816c-0.31-0.364-0.573-0.761-0.787-1.186h22.368v2.143H52.631
		C52.298,51.503,51.974,51.184,51.666,50.816z M52.916,27.882h20.331v0.96h-21.33C52.273,28.446,52.606,28.125,52.916,27.882z
		 M53.559,52.37h19.688v0.319H54.916C54.44,52.689,53.989,52.584,53.559,52.37z"/>
	<path fill="#B0D135" d="M84,33.317h22.975v0.457h-12.22c-0.167,0-0.305,0.076-0.41,0.23c-0.107,0.152-0.197,0.335-0.269,0.548H84
		v-0.96V33.317L84,33.317z M84,36.061h10.005v1.37H84V36.061z M84,38.755h10.005v1.555H84V38.755z M84,41.497h10.005v1.688H84
		V41.497z M106.761,46.021H84v-1.828h10.005v0.732c0.023,0.307,0.107,0.557,0.251,0.754c0.143,0.197,0.308,0.297,0.5,0.297h12.006
		L106.761,46.021L106.761,46.021z M84,47.071v-0.137h22.761v1.965h-22.44C84.107,48.321,84,47.71,84,47.071z M84.411,31.171
		c0.059-0.181,0.125-0.363,0.195-0.547h22.368v1.098H84.25C84.297,31.536,84.352,31.353,84.411,31.171z M85.393,50.816
		c-0.31-0.364-0.571-0.761-0.786-1.186h22.153v2.143H86.358C86.025,51.503,85.703,51.184,85.393,50.816z M86.643,27.882h20.331v0.96
		H85.643C86.002,28.446,86.333,28.125,86.643,27.882z M87.288,52.37h19.473v0.319H88.644C88.168,52.689,87.715,52.584,87.288,52.37z
		"/>
	<path fill="#B0D135" d="M117.729,27.882h10.003v0.96h-10.003V27.882z M117.729,30.624h10.003v1.098h-10.003V30.624z
		 M117.729,33.317h10.003v1.235h-10.003V33.317z M117.729,36.061h10.003v1.37h-10.003V36.061z M117.729,38.755h10.003v1.555h-10.003
		V38.755z M117.729,41.497h10.003v1.688h-10.003V41.497z M127.965,45.587c0.083,0.262,0.256,0.389,0.517,0.389h4.432
		c0.189,0,0.35-0.123,0.481-0.367c0.13-0.242,0.233-0.457,0.305-0.639v-0.78h9.969v1.828H117.73V44.19h10.003v0.734
		C127.802,45.106,127.881,45.329,127.965,45.587z M117.729,47.071v-0.137h25.939v0.137c0,0.336-0.03,0.646-0.089,0.938
		c-0.061,0.287-0.138,0.586-0.232,0.891H118.05C117.835,48.321,117.729,47.71,117.729,47.071z M119.158,50.816
		c-0.311-0.364-0.573-0.761-0.787-1.186h24.653c-0.429,0.85-1,1.566-1.714,2.143h-21.187
		C119.787,51.503,119.466,51.184,119.158,50.816z M121.051,52.37h19.33c-0.429,0.214-0.881,0.319-1.358,0.319h-16.65
		C121.895,52.689,121.457,52.584,121.051,52.37z M133.699,27.882h9.969v0.96h-9.969V27.882z M133.699,30.624h9.969v1.098h-9.969
		V30.624z M133.699,33.317h9.969v1.235h-9.969V33.317z M133.699,36.061h9.969v1.37h-9.969V36.061z M133.699,38.755h9.969v1.555
		h-9.969V38.755z M133.699,41.497h9.969v1.688h-9.969V41.497z"/>
	<path fill="#B0D135" d="M178.897,28.844h-24.476v-0.961h23.548C178.349,28.187,178.659,28.507,178.897,28.844z M180.076,31.721
		H154.42v-1.099h25.333C179.898,30.99,180.004,31.353,180.076,31.721z M164.39,34.553h-9.969v-1.235h25.869
		c0.023,0.216,0.042,0.422,0.054,0.618c0.011,0.199,0.018,0.404,0.018,0.617h-10.146c-0.096-0.213-0.221-0.396-0.376-0.548
		c-0.156-0.15-0.328-0.23-0.518-0.23h-4.932V34.553z M154.421,36.061h9.969v1.37h-9.969V36.061z M169.106,38.802
		c0.118,0,0.202-0.015,0.251-0.047h10.541c-0.072,0.277-0.143,0.542-0.214,0.802c-0.071,0.257-0.167,0.511-0.285,0.753h-24.976
		v-1.555h9.969v0.047H169.106z M177.252,42.183c-0.118,0.152-0.179,0.35-0.179,0.592c0,0.217,0.012,0.336,0.036,0.367l0.036,0.043
		H154.42v-1.688h24.225C178.24,41.954,177.777,42.183,177.252,42.183z M165.659,45.655c-0.203-0.092-0.411-0.139-0.626-0.139h-0.072
		c-0.143,0.062-0.273,0.123-0.393,0.182c-0.121,0.062-0.179,0.109-0.179,0.141v0.18h-9.969V44.19h23.295l1.109,1.828h-12.577
		C166.057,45.868,165.862,45.745,165.659,45.655z M154.421,46.933h9.969v1.965h-9.969V46.933z M154.421,49.632h9.969v2.144h-9.969
		V49.632z M154.421,52.37h9.969v0.319h-9.969V52.37z M167.034,46.933h12.327l1.179,1.965h-12.327l-1.071-1.826L167.034,46.933z
		 M168.642,49.632h12.327l1.287,2.144h-12.362L168.642,49.632z M182.792,52.689h-12.363l-0.214-0.319h12.362L182.792,52.689z
		 M170.572,36.198V36.06h9.753c-0.023,0.244-0.048,0.473-0.071,0.688c-0.025,0.212-0.061,0.438-0.108,0.684h-9.789
		C170.501,37.035,170.572,36.624,170.572,36.198z"/>
	<path fill="#B0D135" d="M191.938,27.882h10.004v0.96h-10.004V27.882L191.938,27.882z M191.938,30.624h10.004v1.098h-10.004V30.624
		L191.938,30.624z M191.938,33.317h10.004v1.235h-10.004V33.317L191.938,33.317z M191.938,36.061h10.004v1.37h-10.004V36.061
		L191.938,36.061z M191.938,38.755h10.004v1.555h-10.004V38.755L191.938,38.755z M191.938,41.497h10.004v1.688h-10.004V41.497
		L191.938,41.497z M191.938,44.192h10.004v1.828h-10.004V44.192L191.938,44.192z M191.938,46.933h10.004v1.965h-10.004V46.933
		L191.938,46.933z M191.938,49.632h10.004v2.144h-10.004V49.632L191.938,49.632z M191.938,52.689V52.37h10.004v0.319H191.938z"/>
	<path fill="#B0D135" d="M212.696,27.882h24.618v0.96h-24.618V27.882z M212.696,30.624h24.618v1.098h-24.618V30.624z
		 M212.696,33.774v-0.457h24.618v0.457h-7.361v0.778H219.95v-0.778H212.696z M219.95,36.061h10.003v1.37H219.95V36.061
		L219.95,36.061z M219.95,38.755h10.003v1.555H219.95V38.755L219.95,38.755z M219.95,41.497h10.003v1.688H219.95V41.497
		L219.95,41.497z M219.95,44.192h10.003v1.828H219.95V44.192L219.95,44.192z M219.95,46.933h10.003v1.965H219.95V46.933
		L219.95,46.933z M219.95,49.632h10.003v2.144H219.95V49.632L219.95,49.632z M219.95,52.689V52.37h10.003v0.319H219.95z"/>
	<path fill="#B0D135" d="M258.698,28.361c0.155,0.168,0.292,0.328,0.411,0.482h-11.041v-0.961h10.148
		C258.381,28.035,258.542,28.194,258.698,28.361z M261.128,31.378c0.083-0.198,0.207-0.45,0.375-0.754h11.255v1.098h-24.689v-1.098
		h12.219c0.118,0.212,0.232,0.403,0.341,0.572c0.106,0.167,0.219,0.327,0.338,0.479C260.989,31.674,261.043,31.576,261.128,31.378z
		 M269.113,33.822c-0.214,0.121-0.536,0.364-0.965,0.729h-16.363c-0.525-0.334-1.008-0.54-1.448-0.617
		c-0.441-0.077-0.721-0.113-0.839-0.113h-1.43v-0.505h24.689v0.505H269.113z M253.838,36.747c-0.18-0.214-0.363-0.442-0.555-0.687
		h13.363c-0.191,0.243-0.356,0.473-0.499,0.687c-0.144,0.212-0.276,0.439-0.394,0.684h-11.396
		C254.19,37.187,254.017,36.959,253.838,36.747z M255.213,39.236c-0.048-0.168-0.095-0.327-0.143-0.481h10.291v0.138v1.417h-10.005
		v-0.594C255.309,39.563,255.261,39.404,255.213,39.236z M255.356,41.497h10.005v1.688h-10.005V41.497L255.356,41.497z
		 M255.356,44.192h10.005v1.828h-10.005V44.192L255.356,44.192z M255.356,46.933h10.005v1.965h-10.005V46.933L255.356,46.933z
		 M255.356,49.632h10.005v2.144h-10.005V49.632L255.356,49.632z M255.356,52.689V52.37h10.005v0.319H255.356z M263.056,28.361
		c0.154-0.167,0.316-0.326,0.483-0.479h9.218v0.96h-10.111C262.766,28.689,262.901,28.529,263.056,28.361z"/>
	<path fill="#B0D135" d="M331.782,33.593v0.96h-10.075c-0.071-0.213-0.16-0.396-0.27-0.548c-0.105-0.15-0.241-0.23-0.411-0.23h-4.5
		c-0.285,0.092-0.489,0.352-0.608,0.778h-10.075v-0.96v-0.275h25.941v0.275H331.782z M305.842,36.061h9.969v1.37h-9.969V36.061z
		 M305.842,38.755h9.969v1.555h-9.969V38.755z M305.842,41.497h9.969v1.688h-9.969V41.497z M315.99,45.563
		c0.094,0.277,0.297,0.412,0.604,0.412h4.431c0.143,0,0.291-0.127,0.446-0.389c0.154-0.258,0.27-0.48,0.338-0.662v-0.732h9.97v1.828
		H305.84v-1.828h9.968v0.732C315.834,45.077,315.895,45.288,315.99,45.563z M331.693,48.009c-0.062,0.287-0.14,0.586-0.233,0.889
		h-25.296c-0.215-0.576-0.322-1.188-0.322-1.826v-0.137h25.94v0.137C331.782,47.407,331.752,47.718,331.693,48.009z M331.354,31.171
		c0.07,0.182,0.132,0.365,0.18,0.55h-25.439c0.048-0.185,0.104-0.368,0.162-0.55c0.059-0.181,0.125-0.363,0.194-0.547h24.69
		C331.211,30.808,331.283,30.99,331.354,31.171z M329.425,51.775h-21.226c-0.333-0.272-0.654-0.592-0.963-0.957
		c-0.312-0.366-0.573-0.761-0.788-1.188h24.69C330.711,50.483,330.139,51.198,329.425,51.775z M330.104,28.844h-22.617
		c0.356-0.396,0.689-0.719,1-0.961h20.651C329.495,28.155,329.816,28.477,330.104,28.844z M327.137,52.689h-16.649
		c-0.479,0-0.932-0.105-1.358-0.319h19.366C328.064,52.584,327.613,52.689,327.137,52.689z M321.812,36.061h9.969v1.37h-9.969
		V36.061z M321.812,38.755h9.969v1.555h-9.969V38.755z M321.812,41.497h9.969v1.688h-9.969V41.497z"/>
	<path fill="#B0D135" d="M342.536,33.317h22.974v0.457h-12.219c-0.141,0-0.273,0.076-0.392,0.23
		c-0.122,0.152-0.216,0.335-0.287,0.548h-10.075v-0.96L342.536,33.317L342.536,33.317z M365.51,37.431h-22.974v-1.37h10.147
		c0.188,0.396,0.478,0.594,0.856,0.594h11.969L365.51,37.431L365.51,37.431z M342.536,38.755h22.974v1.555h-22.974V38.755z
		 M353.256,43.185h-10.721v-1.688h22.974v1.688H353.29H353.256z M352.542,46.021h-10.007v-1.828h10.041
		c-0.024,0.029-0.034,0.061-0.034,0.092V46.021z M342.536,46.933h10.007v1.965h-10.007V46.933z M342.536,49.632h10.007v2.144
		h-10.007V49.632z M342.536,52.689V52.37h10.007v0.319H342.536z M342.947,31.171c0.061-0.181,0.126-0.363,0.195-0.547h22.366v1.098
		h-22.723C342.833,31.536,342.889,31.353,342.947,31.171z M345.181,27.882h20.329v0.96h-21.331
		C344.537,28.446,344.87,28.125,345.181,27.882z"/>
	<path fill="#B0D135" d="M398.594,27.882h24.617v0.96h-24.617V27.882z M398.594,30.624h24.617v1.098h-24.617V30.624z
		 M415.854,33.774v0.778h-10.007v-0.778h-7.253v-0.457h24.617v0.457H415.854z M405.847,36.061h10.007v1.37h-10.007V36.061z
		 M405.847,38.755h10.007v1.555h-10.007V38.755z M405.847,41.497h10.007v1.688h-10.007V41.497z M405.847,44.192h10.007v1.828
		h-10.007V44.192z M405.847,46.933h10.007v1.965h-10.007V46.933z M405.847,49.632h10.007v2.144h-10.007V49.632z M405.847,52.689
		V52.37h10.007v0.319H405.847z"/>
	<path fill="#B0D135" d="M433.966,27.882h10.006v0.96h-10.006V27.882z M433.966,30.624h10.006v1.098h-10.006V30.624z
		 M433.966,33.317h10.006v1.235h-10.006V33.317z M448.794,36.654V36.06h10.042v1.37h-24.869v-1.37h10.006v0.594H448.794z
		 M433.966,38.755h24.868v1.555h-24.868V38.755z M433.966,43.185v-1.688h24.868v1.688H433.966z M433.966,44.192h10.006v1.828
		h-10.006V44.192z M433.966,46.933h10.006v1.965h-10.006V46.933z M433.966,49.632h10.006v2.144h-10.006V49.632z M433.966,52.689
		V52.37h10.006v0.319H433.966z M448.794,27.882h10.042v0.96h-10.042V27.882z M448.794,30.624h10.042v1.098h-10.042V30.624z
		 M448.794,33.317h10.042v1.235h-10.042V33.317z M448.794,44.192h10.042v1.828h-10.042V44.192z M448.794,46.933h10.042v1.965
		h-10.042V46.933z M448.794,49.632h10.042v2.144h-10.042V49.632z M448.794,52.689V52.37h10.042v0.319H448.794z"/>
	<path fill="#B0D135" d="M469.59,27.882h10.004v0.96H469.59V27.882z M469.59,30.624h10.004v1.098H469.59V30.624z M469.59,33.317
		h10.004v1.235H469.59V33.317z M469.59,36.061h10.004v1.37H469.59V36.061z M469.59,38.755h10.004v1.555H469.59V38.755z
		 M469.59,41.497h10.004v1.688H469.59V41.497z M469.59,44.192h10.004v1.828H469.59V44.192z M469.59,46.933h10.004v1.965H469.59
		V46.933z M469.59,49.632h10.004v2.144H469.59V49.632z M469.59,52.689V52.37h10.004v0.319H469.59z"/>
	<path fill="#B0D135" d="M504.802,28.361c0.151,0.168,0.306,0.328,0.443,0.482h-14.898v-0.961h13.972
		C504.484,28.035,504.646,28.194,504.802,28.361z M506.926,31.196c0.096,0.167,0.18,0.327,0.25,0.479v0.047h-16.827v-1.098h16.257
		C506.724,30.836,506.83,31.027,506.926,31.196z M490.349,33.317h17.579l0.572,1.235h-18.151V33.317z M490.349,36.061h18.865
		l0.642,1.37h-19.507V36.061z M500.35,40.31h-10.003v-1.555h20.116l0.643,1.373v-1.373h9.933v1.555H500.53l-0.182-0.364
		L500.35,40.31L500.35,40.31z M490.349,41.497h10.003v1.688h-10.003V41.497z M490.349,44.192h10.003v1.828h-10.003V44.192z
		 M490.349,46.933h10.003v1.965h-10.003V46.933z M490.349,49.632h10.003v2.144h-10.003V49.632z M490.349,52.689V52.37h10.003v0.319
		H490.349z M501.139,41.497h19.899v1.688H502.03L501.139,41.497z M502.529,44.192h18.511v1.828h-17.581L502.529,44.192z
		 M504.46,47.94l-0.535-1.006h17.113v1.965h-16.043L504.46,47.94z M506.337,50.816c-0.323-0.364-0.612-0.761-0.874-1.186h15.575
		v2.143h-13.719C506.985,51.503,506.657,51.184,506.337,50.816z M509.534,52.689c-0.478,0-0.918-0.105-1.322-0.319h12.828v0.319
		H509.534z M511.105,27.882h9.933v0.96h-9.933V27.882z M511.105,30.624h9.933v1.098h-9.933V30.624z M511.105,33.317h9.933v1.235
		h-9.933V33.317z M511.105,36.061h9.933v1.37h-9.933V36.061z"/>
	<path fill="#B0D135" d="M531.792,33.593v-0.275h25.832v0.457h-15.077c-0.166,0-0.304,0.076-0.409,0.23
		c-0.107,0.152-0.195,0.335-0.271,0.548h-10.075V33.593z M531.792,36.061h10.005v1.37h-10.005V36.061z M531.792,38.755h10.005v1.555
		h-10.005V38.755z M531.792,41.497h10.005v1.688h-10.005V41.497z M542.03,45.587c0.082,0.262,0.256,0.389,0.517,0.389h4.432
		c0.188,0,0.35-0.127,0.482-0.389c0.128-0.258,0.231-0.48,0.304-0.662v-0.732h9.966v1.828h-25.938v-1.828h10.004v0.732
		C541.868,45.106,541.946,45.329,542.03,45.587z M557.644,48.009c-0.059,0.287-0.137,0.586-0.229,0.889h-25.298
		c-0.213-0.576-0.322-1.188-0.322-1.826v-0.137h25.939v0.137C557.731,47.407,557.704,47.718,557.644,48.009z M532.206,31.171
		c0.057-0.181,0.124-0.363,0.193-0.547h25.225v1.098h-25.58C532.091,31.536,532.146,31.353,532.206,31.171z M555.376,51.775h-21.188
		c-0.332-0.272-0.655-0.592-0.962-0.957c-0.314-0.366-0.575-0.761-0.788-1.188h24.652C556.662,50.483,556.09,51.198,555.376,51.775z
		 M534.438,27.882h23.187v0.96h-24.188C533.795,28.446,534.127,28.125,534.438,27.882z M553.087,52.689h-16.65
		c-0.476,0-0.916-0.105-1.316-0.319h19.328C554.017,52.584,553.562,52.689,553.087,52.689z M543.799,36.288h9.288
		c0.43,0,0.883,0.107,1.359,0.32c0.476,0.215,0.93,0.486,1.357,0.822h-12.008v-1.143L543.799,36.288L543.799,36.288z M557.624,40.31
		h-13.825v-1.555h13.183C557.316,39.274,557.531,39.792,557.624,40.31z M547.765,43.05h-3.968v-1.553h13.934v1.688h-9.966V43.05
		L547.765,43.05z"/>
	<path fill="#B0D135" d="M568.487,45.929h5.251c0.265,0,0.541-0.182,0.84-0.547c0.297-0.365,0.579-0.76,0.84-1.189h12.222
		l-0.786,1.828h-18.365L568.487,45.929L568.487,45.929z M585.495,48.897h-17.008v-1.965h17.971l-0.319,0.732
		C585.946,48.093,585.732,48.505,585.495,48.897z M584.083,50.816c-0.344,0.365-0.708,0.687-1.093,0.957h-14.505v-2.143h16.542
		C584.744,50.056,584.429,50.452,584.083,50.816z M568.487,52.37h13.505c-0.43,0.214-0.917,0.319-1.463,0.319h-12.042V52.37z
		 M576.062,43.028c0.022-0.047,0.047-0.1,0.07-0.16l0.573-1.371h12.075l-0.717,1.689H575.99
		C576.013,43.128,576.037,43.071,576.062,43.028z M577.921,38.755h12.04l-0.642,1.555h-12.076L577.921,38.755z M590.96,36.449
		c-0.046,0.104-0.084,0.205-0.106,0.298l-0.319,0.684h-12.041l0.572-1.37h12.041C591.056,36.214,591.009,36.343,590.96,36.449z
		 M593.285,33.774c-0.191,0-0.386,0.07-0.59,0.206c-0.203,0.138-0.399,0.328-0.591,0.572h-12.396l0.536-1.235h18.258v0.457H593.285z
		 M581.262,31.217c0.106-0.184,0.23-0.381,0.373-0.593H598.5v1.098h-17.542C581.054,31.568,581.153,31.4,581.262,31.217z
		 M583.601,28.361c0.165-0.167,0.335-0.326,0.499-0.479h14.4v0.96h-15.396C583.268,28.689,583.436,28.529,583.601,28.361z"/>
</g>
</svg>
