<?xml version="1.0" encoding="utf-8"?>
<!-- Generator: Adobe Illustrator 16.0.0, SVG Export Plug-In . SVG Version: 6.00 Build 0)  -->
<!DOCTYPE svg PUBLIC "-//W3C//DTD SVG 1.1//EN" "http://www.w3.org/Graphics/SVG/1.1/DTD/svg11.dtd">
<svg version="1.1" id="Layer_1" xmlns="http://www.w3.org/2000/svg" xmlns:xlink="http://www.w3.org/1999/xlink" x="0px" y="0px"
	 width="300px" height="25px" viewBox="0 0 300 25" enable-background="new 0 0 300 25" xml:space="preserve">
<g>
	<path fill="#B0D135" d="M19.746,10.042c-0.05,0.071-0.091,0.156-0.125,0.255h-4.696V9.722h11.773v0.213h-6.76
		C19.859,9.935,19.795,9.971,19.746,10.042z M25.732,11.639H14.925v-0.064V11h4.662v0.234h4.996
		C24.96,11.234,25.343,11.369,25.732,11.639z M21.943,15.387c0.061-0.156,0.092-0.291,0.092-0.404v-0.191h4.68v0.852h-11.79v-0.021
		h6.761C21.797,15.621,21.882,15.543,21.943,15.387z M26.465,16.983h-11.54v-0.915h11.773
		C26.665,16.352,26.586,16.657,26.465,16.983z M25.499,18.324H14.925v-1h11.374C26.076,17.736,25.81,18.069,25.499,18.324z
		 M14.925,18.751v-0.149h10.141c-0.2,0.1-0.417,0.149-0.649,0.149H14.925z M15.083,8.721c0.027-0.085,0.058-0.17,0.091-0.255h11.523
		v0.511H15.008C15.03,8.892,15.055,8.807,15.083,8.721z M26.681,12.98H15.375c-0.145-0.199-0.261-0.44-0.35-0.724h11.34
		C26.531,12.483,26.637,12.725,26.681,12.98z M16.107,7.188h10.59v0.447h-11.04C15.791,7.465,15.941,7.316,16.107,7.188z
		 M16.448,14.077c-0.228-0.136-0.447-0.316-0.657-0.543h10.924v0.788h-4.68v-0.043h-4.946C16.89,14.279,16.676,14.213,16.448,14.077
		z"/>
	<path fill="#B0D135" d="M31.727,9.722h10.707v0.213h-5.694c-0.067,0-0.128,0.036-0.184,0.107c-0.056,0.071-0.1,0.156-0.133,0.255
		h-4.696V9.85V9.722z M42.434,11.639H31.727V11h4.729c0.089,0.185,0.222,0.277,0.399,0.277h5.578V11.639z M31.727,12.256h10.707
		v0.724H31.727V12.256z M36.722,14.322h-4.996v-0.788h10.707v0.788h-5.694H36.722z M42.434,15.643H31.727v-0.852h4.679
		c-0.011,0.014-0.017,0.028-0.017,0.042c0,0.015-0.002,0.036-0.008,0.064c-0.006,0.028-0.009,0.056-0.009,0.085
		c0,0.027,0.003,0.057,0.009,0.085c0.005,0.028,0.008,0.05,0.008,0.063c0.034,0.086,0.094,0.188,0.184,0.309
		c0.088,0.121,0.144,0.182,0.167,0.182h5.694V15.643z M31.727,16.132v-0.063h10.707v0.915H31.876
		C31.776,16.714,31.727,16.43,31.727,16.132z M31.918,8.721c0.028-0.085,0.058-0.17,0.092-0.255h10.424v0.511H31.843
		C31.865,8.892,31.89,8.807,31.918,8.721z M32.376,17.878c-0.144-0.171-0.267-0.354-0.366-0.554h10.424v1h-9.608
		C32.67,18.197,32.52,18.048,32.376,17.878z M32.959,7.188h9.475v0.447h-9.941C32.659,7.451,32.814,7.302,32.959,7.188z
		 M33.259,18.602h9.175v0.149h-8.542C33.669,18.751,33.458,18.701,33.259,18.602z"/>
	<path fill="#B0D135" d="M47.445,9.722h10.708v0.213h-5.695c-0.078,0-0.142,0.036-0.191,0.107c-0.05,0.071-0.092,0.156-0.125,0.255
		h-4.696V9.85V9.722z M47.445,11h4.663v0.639h-4.663V11z M47.445,12.256h4.663v0.724h-4.663V12.256z M47.445,13.534h4.663v0.788
		h-4.663V13.534z M58.053,15.643H47.445v-0.852h4.663v0.34c0.011,0.143,0.05,0.26,0.117,0.352c0.066,0.092,0.144,0.139,0.233,0.139
		h5.595V15.643z M47.445,16.132v-0.063h10.607v0.915H47.595C47.496,16.714,47.445,16.43,47.445,16.132z M47.637,8.721
		c0.027-0.085,0.058-0.17,0.091-0.255h10.424v0.511h-10.59C47.584,8.892,47.609,8.807,47.637,8.721z M48.095,17.878
		c-0.145-0.171-0.267-0.354-0.367-0.554h10.324v1h-9.508C48.389,18.197,48.239,18.048,48.095,17.878z M48.678,7.188h9.475v0.447
		h-9.941C48.378,7.451,48.533,7.302,48.678,7.188z M48.978,18.602h9.075v0.149H49.61C49.388,18.751,49.177,18.701,48.978,18.602z"/>
	<path fill="#B0D135" d="M63.165,7.188h4.662v0.447h-4.662V7.188z M63.165,8.466h4.662v0.511h-4.662V8.466z M63.165,9.722h4.662
		v0.575h-4.662V9.722z M63.165,11h4.662v0.639h-4.662V11z M63.165,12.256h4.662v0.724h-4.662V12.256z M63.165,13.534h4.662v0.788
		h-4.662V13.534z M67.936,15.439c0.039,0.121,0.119,0.182,0.242,0.182h2.065c0.088,0,0.163-0.057,0.225-0.17
		c0.061-0.114,0.108-0.214,0.142-0.299v-0.361h4.646v0.852H63.165v-0.852h4.662v0.34C67.86,15.217,67.896,15.319,67.936,15.439z
		 M63.165,16.132v-0.063h12.089v0.063c0,0.156-0.014,0.302-0.042,0.437s-0.064,0.273-0.108,0.415H63.315
		C63.215,16.714,63.165,16.43,63.165,16.132z M63.831,17.878c-0.145-0.171-0.267-0.354-0.367-0.554h11.49
		c-0.2,0.397-0.466,0.731-0.799,1h-9.875C64.125,18.197,63.975,18.048,63.831,17.878z M64.714,18.602h9.008
		c-0.2,0.1-0.411,0.149-0.633,0.149h-7.76C65.107,18.751,64.902,18.701,64.714,18.602z M70.608,7.188h4.646v0.447h-4.646V7.188z
		 M70.608,8.466h4.646v0.511h-4.646V8.466z M70.608,9.722h4.646v0.575h-4.646V9.722z M70.608,11h4.646v0.639h-4.646V11z
		 M70.608,12.256h4.646v0.724h-4.646V12.256z M70.608,13.534h4.646v0.788h-4.646V13.534z"/>
	<path fill="#B0D135" d="M91.673,7.636H80.266V7.188H91.24C91.417,7.331,91.562,7.479,91.673,7.636z M92.222,8.977H80.266V8.466
		h11.807C92.139,8.636,92.189,8.807,92.222,8.977z M84.912,10.297h-4.646V9.722h12.056c0.011,0.1,0.02,0.196,0.026,0.288
		c0.005,0.093,0.008,0.188,0.008,0.288h-4.729c-0.044-0.099-0.103-0.185-0.175-0.255c-0.072-0.071-0.152-0.107-0.241-0.107h-2.298
		V10.297z M80.266,11h4.646v0.639h-4.646V11z M87.11,12.278c0.055,0,0.094-0.007,0.117-0.021h4.912
		c-0.033,0.128-0.066,0.252-0.1,0.373s-0.078,0.238-0.133,0.352h-11.64v-0.724h4.646v0.021H87.11z M90.906,13.854
		c-0.055,0.071-0.083,0.163-0.083,0.276c0,0.1,0.005,0.156,0.017,0.171l0.017,0.021H80.266v-0.788h11.291
		C91.367,13.747,91.151,13.854,90.906,13.854z M85.503,15.472c-0.095-0.042-0.191-0.063-0.292-0.063h-0.033
		c-0.067,0.029-0.128,0.057-0.184,0.085s-0.083,0.05-0.083,0.064v0.085h-4.646v-0.852h10.857l0.517,0.852h-5.862
		C85.689,15.571,85.598,15.514,85.503,15.472z M80.266,16.068h4.646v0.915h-4.646V16.068z M80.266,17.324h4.646v1h-4.646V17.324z
		 M80.266,18.602h4.646v0.149h-4.646V18.602z M86.144,16.068h5.745l0.549,0.915h-5.745l-0.5-0.852L86.144,16.068z M86.894,17.324
		h5.745l0.6,1h-5.761L86.894,17.324z M93.488,18.751h-5.762l-0.1-0.149h5.761L93.488,18.751z M87.793,11.064V11h4.546
		c-0.011,0.114-0.022,0.22-0.034,0.319c-0.011,0.1-0.028,0.206-0.05,0.319h-4.562C87.76,11.454,87.793,11.263,87.793,11.064z"/>
	<path fill="#B0D135" d="M97.75,7.188h4.662v0.447H97.75V7.188z M97.75,8.466h4.662v0.511H97.75V8.466z M97.75,9.722h4.662v0.575
		H97.75V9.722z M97.75,11h4.662v0.639H97.75V11z M97.75,12.256h4.662v0.724H97.75V12.256z M97.75,13.534h4.662v0.788H97.75V13.534z
		 M97.75,14.791h4.662v0.852H97.75V14.791z M97.75,16.068h4.662v0.915H97.75V16.068z M97.75,17.324h4.662v1H97.75V17.324z
		 M97.75,18.751v-0.149h4.662v0.149H97.75z"/>
	<path fill="#B0D135" d="M107.425,7.188h11.473v0.447h-11.473V7.188z M107.425,8.466h11.473v0.511h-11.473V8.466z M107.425,9.935
		V9.722h11.473v0.213h-3.43v0.362h-4.663V9.935H107.425z M110.805,11h4.663v0.639h-4.663V11z M110.805,12.256h4.663v0.724h-4.663
		V12.256z M110.805,13.534h4.663v0.788h-4.663V13.534z M110.805,14.791h4.663v0.852h-4.663V14.791z M110.805,16.068h4.663v0.915
		h-4.663V16.068z M110.805,17.324h4.663v1h-4.663V17.324z M110.805,18.751v-0.149h4.663v0.149H110.805z"/>
	<path fill="#B0D135" d="M128.864,7.412c0.072,0.078,0.136,0.153,0.191,0.224h-5.146V7.188h4.729
		C128.717,7.26,128.792,7.334,128.864,7.412z M129.997,8.817c0.039-0.092,0.097-0.209,0.175-0.351h5.245v0.511H123.91V8.466h5.695
		c0.056,0.099,0.108,0.188,0.159,0.266c0.05,0.078,0.102,0.152,0.158,0.223C129.933,8.956,129.958,8.91,129.997,8.817z
		 M133.718,9.957c-0.1,0.057-0.25,0.17-0.45,0.341h-7.626c-0.244-0.156-0.469-0.252-0.675-0.288
		c-0.205-0.035-0.335-0.053-0.391-0.053h-0.666V9.722h11.506v0.234H133.718z M126.599,11.319c-0.083-0.099-0.169-0.206-0.258-0.319
		h6.228c-0.088,0.114-0.166,0.22-0.232,0.319c-0.067,0.1-0.128,0.206-0.184,0.319h-5.312
		C126.763,11.525,126.683,11.419,126.599,11.319z M127.241,12.48c-0.022-0.078-0.045-0.152-0.066-0.224h4.795v0.064v0.66h-4.663
		v-0.277C127.285,12.633,127.263,12.558,127.241,12.48z M127.307,13.534h4.663v0.788h-4.663V13.534z M127.307,14.791h4.663v0.852
		h-4.663V14.791z M127.307,16.068h4.663v0.915h-4.663V16.068z M127.307,17.324h4.663v1h-4.663V17.324z M127.307,18.751v-0.149h4.663
		v0.149H127.307z M130.896,7.412c0.072-0.078,0.147-0.152,0.225-0.224h4.296v0.447h-4.712C130.76,7.565,130.824,7.49,130.896,7.412z
		"/>
	<path fill="#B0D135" d="M162.926,9.85v0.447h-4.696c-0.033-0.099-0.075-0.185-0.126-0.255c-0.049-0.071-0.112-0.107-0.191-0.107
		h-2.097c-0.134,0.043-0.229,0.164-0.284,0.362h-4.695V9.85V9.722h12.09V9.85z M150.836,11h4.646v0.639h-4.646V11z M150.836,12.256
		h4.646v0.724h-4.646V12.256z M150.836,13.534h4.646v0.788h-4.646V13.534z M155.565,15.43c0.044,0.128,0.139,0.191,0.282,0.191
		h2.064c0.067,0,0.137-0.061,0.209-0.182c0.072-0.12,0.125-0.223,0.158-0.309v-0.34h4.646v0.852h-12.09v-0.852h4.646v0.34
		C155.493,15.203,155.521,15.301,155.565,15.43z M162.885,16.568c-0.029,0.135-0.064,0.273-0.109,0.415h-11.789
		c-0.101-0.27-0.15-0.554-0.15-0.852v-0.063h12.09v0.063C162.926,16.288,162.912,16.434,162.885,16.568z M162.726,8.721
		c0.033,0.085,0.062,0.171,0.083,0.256h-11.855c0.021-0.085,0.047-0.17,0.074-0.256c0.027-0.085,0.059-0.17,0.091-0.255h11.508
		C162.659,8.551,162.692,8.636,162.726,8.721z M161.826,18.324h-9.892c-0.155-0.127-0.305-0.276-0.448-0.446
		c-0.146-0.171-0.268-0.354-0.368-0.554h11.508C162.426,17.722,162.16,18.056,161.826,18.324z M162.143,7.636h-10.541
		c0.168-0.185,0.322-0.333,0.467-0.447h9.625C161.859,7.316,162.01,7.465,162.143,7.636z M160.761,18.751H153
		c-0.223,0-0.433-0.05-0.633-0.149h9.025C161.193,18.701,160.982,18.751,160.761,18.751z M158.279,11h4.646v0.639h-4.646V11z
		 M158.279,12.256h4.646v0.724h-4.646V12.256z M158.279,13.534h4.646v0.788h-4.646V13.534z"/>
	<path fill="#B0D135" d="M167.938,9.722h10.707v0.213h-5.694c-0.066,0-0.128,0.036-0.184,0.107c-0.056,0.071-0.1,0.156-0.134,0.255
		h-4.695V9.85V9.722z M178.645,11.639h-10.707V11h4.729c0.089,0.185,0.222,0.277,0.399,0.277h5.578V11.639z M167.938,12.256h10.707
		v0.724h-10.707V12.256z M172.934,14.322h-4.996v-0.788h10.707v0.788h-5.694H172.934z M172.601,15.643h-4.663v-0.852h4.68
		c-0.012,0.014-0.017,0.028-0.017,0.042V15.643z M167.938,16.068h4.663v0.915h-4.663V16.068z M167.938,17.324h4.663v1h-4.663V17.324
		z M167.938,18.751v-0.149h4.663v0.149H167.938z M168.129,8.721c0.027-0.085,0.059-0.17,0.092-0.255h10.424v0.511h-10.59
		C168.076,8.892,168.102,8.807,168.129,8.721z M169.17,7.188h9.475v0.447h-9.94C168.87,7.451,169.025,7.302,169.17,7.188z"/>
	<path fill="#B0D135" d="M194.063,7.188h11.474v0.447h-11.474V7.188z M194.063,8.466h11.474v0.511h-11.474V8.466z M202.106,9.935
		v0.362h-4.662V9.935h-3.381V9.722h11.474v0.213H202.106z M197.444,11h4.662v0.639h-4.662V11z M197.444,12.256h4.662v0.724h-4.662
		V12.256z M197.444,13.534h4.662v0.788h-4.662V13.534z M197.444,14.791h4.662v0.852h-4.662V14.791z M197.444,16.068h4.662v0.915
		h-4.662V16.068z M197.444,17.324h4.662v1h-4.662V17.324z M197.444,18.751v-0.149h4.662v0.149H197.444z"/>
	<path fill="#B0D135" d="M210.549,7.188h4.663v0.447h-4.663V7.188z M210.549,8.466h4.663v0.511h-4.663V8.466z M210.549,9.722h4.663
		v0.575h-4.663V9.722z M217.46,11.277V11h4.679v0.639h-11.59V11h4.663v0.277H217.46z M210.549,12.256h11.59v0.724h-11.59V12.256z
		 M210.549,14.322v-0.788h11.59v0.788H210.549z M210.549,14.791h4.663v0.852h-4.663V14.791z M210.549,16.068h4.663v0.915h-4.663
		V16.068z M210.549,17.324h4.663v1h-4.663V17.324z M210.549,18.751v-0.149h4.663v0.149H210.549z M217.46,7.188h4.679v0.447h-4.679
		V7.188z M217.46,8.466h4.679v0.511h-4.679V8.466z M217.46,9.722h4.679v0.575h-4.679V9.722z M217.46,14.791h4.679v0.852h-4.679
		V14.791z M217.46,16.068h4.679v0.915h-4.679V16.068z M217.46,17.324h4.679v1h-4.679V17.324z M217.46,18.751v-0.149h4.679v0.149
		H217.46z"/>
	<path fill="#B0D135" d="M227.15,7.188h4.663v0.447h-4.663V7.188z M227.15,8.466h4.663v0.511h-4.663V8.466z M227.15,9.722h4.663
		v0.575h-4.663V9.722z M227.15,11h4.663v0.639h-4.663V11z M227.15,12.256h4.663v0.724h-4.663V12.256z M227.15,13.534h4.663v0.788
		h-4.663V13.534z M227.15,14.791h4.663v0.852h-4.663V14.791z M227.15,16.068h4.663v0.915h-4.663V16.068z M227.15,17.324h4.663v1
		h-4.663V17.324z M227.15,18.751v-0.149h4.663v0.149H227.15z"/>
	<path fill="#B0D135" d="M243.562,7.412c0.071,0.078,0.142,0.153,0.208,0.224h-6.944V7.188h6.511
		C243.414,7.26,243.489,7.334,243.562,7.412z M244.552,8.732c0.044,0.078,0.083,0.152,0.116,0.223v0.021h-7.843V8.466h7.577
		C244.457,8.565,244.508,8.654,244.552,8.732z M236.825,9.722h8.192l0.268,0.575h-8.46V9.722z M236.825,11h8.792l0.301,0.639h-9.093
		V11z M241.487,12.98h-4.662v-0.724h9.375l0.3,0.639v-0.639h4.629v0.724h-9.557l-0.085-0.17V12.98z M236.825,13.534h4.662v0.788
		h-4.662V13.534z M236.825,14.791h4.662v0.852h-4.662V14.791z M236.825,16.068h4.662v0.915h-4.662V16.068z M236.825,17.324h4.662v1
		h-4.662V17.324z M236.825,18.751v-0.149h4.662v0.149H236.825z M241.855,13.534h9.273v0.788h-8.857L241.855,13.534z M242.504,14.791
		h8.625v0.852h-8.193L242.504,14.791z M243.402,16.537l-0.249-0.469h7.976v0.915h-7.477L243.402,16.537z M244.277,17.878
		c-0.15-0.171-0.285-0.354-0.407-0.554h7.259v1h-6.394C244.579,18.197,244.427,18.048,244.277,17.878z M245.768,18.751
		c-0.223,0-0.428-0.05-0.616-0.149h5.978v0.149H245.768z M246.5,7.188h4.629v0.447H246.5V7.188z M246.5,8.466h4.629v0.511H246.5
		V8.466z M246.5,9.722h4.629v0.575H246.5V9.722z M246.5,11h4.629v0.639H246.5V11z"/>
	<path fill="#B0D135" d="M256.141,9.85V9.722h12.04v0.213h-7.027c-0.077,0-0.142,0.036-0.191,0.107
		c-0.05,0.071-0.091,0.156-0.125,0.255h-4.696V9.85z M256.141,11h4.663v0.639h-4.663V11z M256.141,12.256h4.663v0.724h-4.663V12.256
		z M256.141,13.534h4.663v0.788h-4.663V13.534z M260.912,15.439c0.039,0.121,0.12,0.182,0.241,0.182h2.065
		c0.088,0,0.163-0.061,0.225-0.182c0.061-0.12,0.109-0.223,0.142-0.309v-0.34h4.646v0.852h-12.09v-0.852h4.663v0.34
		C260.837,15.217,260.873,15.319,260.912,15.439z M268.189,16.568c-0.027,0.135-0.064,0.273-0.108,0.415h-11.79
		c-0.1-0.27-0.15-0.554-0.15-0.852v-0.063h12.09v0.063C268.23,16.288,268.217,16.434,268.189,16.568z M256.334,8.721
		c0.026-0.085,0.058-0.17,0.09-0.255h11.757v0.511h-11.923C256.28,8.892,256.305,8.807,256.334,8.721z M267.133,18.324h-9.875
		c-0.156-0.127-0.307-0.276-0.449-0.446c-0.146-0.171-0.268-0.354-0.367-0.554h11.49C267.731,17.722,267.465,18.056,267.133,18.324z
		 M257.374,7.188h10.807v0.447h-11.272C257.074,7.451,257.229,7.302,257.374,7.188z M266.066,18.751h-7.761
		c-0.222,0-0.427-0.05-0.614-0.149h9.008C266.499,18.701,266.287,18.751,266.066,18.751z M261.736,11.106h4.33
		c0.199,0,0.41,0.05,0.633,0.149c0.223,0.1,0.434,0.227,0.633,0.383h-5.596V11.106z M268.181,12.98h-6.444v-0.724h6.145
		C268.037,12.498,268.137,12.739,268.181,12.98z M263.585,14.258h-1.849v-0.724h6.494v0.788h-4.646V14.258z"/>
	<path fill="#B0D135" d="M273.242,15.6h2.448c0.123,0,0.253-0.086,0.392-0.256s0.27-0.354,0.392-0.553h5.695l-0.367,0.852h-8.56
		V15.6z M281.17,16.983h-7.928v-0.915h8.377l-0.15,0.34C281.38,16.607,281.28,16.8,281.17,16.983z M280.512,17.878
		c-0.161,0.17-0.33,0.319-0.509,0.446h-6.761v-1h7.71C280.819,17.523,280.672,17.707,280.512,17.878z M273.242,18.602h6.295
		c-0.199,0.1-0.428,0.149-0.683,0.149h-5.612V18.602z M276.773,14.247c0.011-0.021,0.021-0.046,0.033-0.074l0.266-0.639h5.629
		l-0.334,0.788h-5.627C276.751,14.293,276.762,14.269,276.773,14.247z M277.639,12.256h5.612l-0.3,0.724h-5.628L277.639,12.256z
		 M283.717,11.181c-0.022,0.05-0.039,0.096-0.05,0.138l-0.149,0.319h-5.612L278.172,11h5.611
		C283.762,11.071,283.739,11.132,283.717,11.181z M284.8,9.935c-0.089,0-0.181,0.032-0.274,0.096
		c-0.096,0.063-0.187,0.153-0.275,0.266h-5.778l0.25-0.575h8.509v0.213H284.8z M279.196,8.743c0.05-0.085,0.107-0.177,0.175-0.276
		h7.859v0.511h-8.176C279.099,8.906,279.146,8.828,279.196,8.743z M280.287,7.412c0.077-0.078,0.155-0.152,0.232-0.224h6.711v0.447
		h-7.176C280.131,7.565,280.209,7.49,280.287,7.412z"/>
</g>
</svg>
